<?xml version="1.0" encoding="UTF-8"?>
<svg width="24px" height="25px" viewBox="0 0 24 25" version="1.1" xmlns="http://www.w3.org/2000/svg" xmlns:xlink="http://www.w3.org/1999/xlink">
    <!-- Generator: Sketch 49 (51002) - http://www.bohemiancoding.com/sketch -->
    <title>成功</title>
    <desc>Created with Sketch.</desc>
    <defs></defs>
    <g id="Page-1" stroke="none" stroke-width="1" fill="none" fill-rule="evenodd">
        <g id="分享" transform="translate(-175.000000, -333.000000)" fill="#FFFFFF">
            <g id="取消收藏" transform="translate(122.000000, 318.000000)">
                <path d="M59.5485471,27.7789793 C59.3959094,27.6263417 58.8448843,27.2618209 58.4963026,27.629728 C58.147721,27.9976351 58.2456657,28.397259 58.37744,28.5290332 L63.00848,33.1595906 C63.2194541,33.3714623 63.5062825,33.4903405 63.80528,33.4898304 C64.09232,33.4898304 64.38128,33.3794305 64.60064,33.1600706 L75.6162529,22.1444638 C76.0468435,21.7031457 76.1334431,21.2493823 75.9187021,20.9733573 C75.703961,20.6973323 75.3069071,20.542634 74.8657187,20.9733573 L63.8048,32.0357099 L59.5485471,27.7789793 Z M76.1609925,25.4957847 C75.6924757,25.5441792 75.6063352,25.9593084 75.6512929,26.4281672 C75.6882529,26.780967 75.7064929,27.1414468 75.7064929,27.4995266 C75.7064929,33.1712035 70.6712,38.2064936 64.99952,38.2064936 C59.32784,38.2064936 54.2925471,33.1712035 54.2925471,27.4995266 C54.2925471,21.8278497 59.32784,16.7925596 65,16.7925596 C67.02272,16.7925596 68.98064,17.3795993 70.66112,18.4898387 C71.055873,18.743941 71.6233013,19.0106213 71.8821042,18.618934 C72.1409072,18.2272467 71.994806,17.7439584 71.60624,17.4804921 C69.6466777,16.1853778 67.348871,15.4965203 65,15.5000132 C58.3832,15.5000132 53,20.8832103 53,27.5000066 C53,34.1168029 58.3832,39.5 65,39.5 C71.6168,39.5 77,34.116803 77,27.5000066 C77,27.0833668 76.9784,26.6638471 76.93616,26.2524873 C76.8838512,25.7838582 76.6295093,25.4473902 76.1609925,25.4957847 Z" id="成功"></path>
            </g>
        </g>
    </g>
</svg>